<svg width="24" height="24" viewBox="0 0 24 24" fill="none" xmlns="http://www.w3.org/2000/svg">
<path d="M19.9953 10.7241H14.3243C14.3195 10.7241 14.3195 10.7289 14.3195 10.7289V11.387C14.3195 11.3918 14.3243 12.4678 14.3243 12.4678H19.9953C20 12.4678 20 11.387 20 11.387V10.7289C20 10.7241 19.9953 10.7241 19.9953 10.7241Z" fill="#DE3246"/>
<path d="M17.0847 15.884C16.1717 17.1998 14.8725 18.1729 13.3819 18.6574C11.8912 19.142 10.2895 19.1118 8.81678 18.5714C7.34407 18.0311 6.07972 17.0097 5.21327 15.6603C4.34683 14.311 3.92498 12.7064 4.01096 11.0872C4.09694 9.4679 4.68611 7.9212 5.69016 6.67892C6.69422 5.43664 8.05904 4.56572 9.58004 4.19673C11.101 3.82773 12.6963 3.98054 14.1266 4.63224C15.5569 5.28394 16.7452 6.39943 17.5134 7.81147L15.9344 8.73745C15.359 7.6799 14.469 6.84445 13.3978 6.35635C12.3266 5.86826 11.1318 5.75381 9.99267 6.03017C8.85351 6.30653 7.83131 6.95881 7.07932 7.88922C6.32733 8.81963 5.88606 9.97805 5.82167 11.1908C5.75727 12.4036 6.07322 13.6053 6.72215 14.6159C7.37107 15.6265 8.31802 16.3915 9.42102 16.7962C10.524 17.2009 11.7236 17.2235 12.8401 16.8606C13.9565 16.4977 14.9295 15.7689 15.6133 14.7834L17.0847 15.884Z" fill="#DE3246"/>
</svg>
