<svg width="40" height="38" viewBox="0 0 40 38" fill="none" xmlns="http://www.w3.org/2000/svg">
  <g filter="url(#filter0_d_1009_3259)">
    <path d="M35 13.5H24.0092C24 13.5 24 13.5093 24 13.5093V14.7815C24 14.7908 24.0092 16.8711 24.0092 16.8711H35C35.0092 16.8711 35.0092 14.7815 35.0092 14.7815V13.5093C35.0092 13.5 35 13.5 35 13.5Z" fill="#DE3246" />
    <path d="M29.3592 23.4758C27.5896 26.0197 25.0717 27.901 22.1827 28.8377C19.2938 29.7745 16.1895 29.7161 13.3353 28.6714C10.481 27.6268 8.03064 25.6521 6.35141 23.0433C4.67218 20.4346 3.8546 17.3324 4.02123 14.2019C4.18787 11.0713 5.32974 8.08098 7.27566 5.67924C9.22159 3.27751 11.8667 1.59373 14.8145 0.880341C17.7623 0.166948 20.854 0.462375 23.626 1.72233C26.398 2.98229 28.7011 5.13889 30.1899 7.86884L27.1297 9.65908C26.0146 7.61447 24.2898 5.99927 22.2136 5.05562C20.1375 4.11196 17.822 3.8907 15.6142 4.425C13.4065 4.9593 11.4254 6.22037 9.96795 8.01917C8.51053 9.81796 7.65532 12.0576 7.53052 14.4022C7.40572 16.7469 8.01805 19.0703 9.27572 21.0241C10.5334 22.9779 12.3686 24.4569 14.5063 25.2393C16.644 26.0217 18.969 26.0654 21.1327 25.3639C23.2964 24.6623 25.1822 23.2533 26.5075 21.348L29.3592 23.4758Z" fill="#DE3246" />
    <path d="M24.5 14.7815V14H34.5092V14.7815V14.7816V14.7818V14.783V14.7874L34.5092 14.8049L34.5092 14.8711L34.509 15.1076C34.5089 15.3034 34.5086 15.5643 34.508 15.8252C34.5076 16.016 34.507 16.2064 34.5063 16.3711H24.507L24.5046 15.8276L24.5014 15.1097L24.5004 14.8718L24.5 14.7815ZM27.312 8.97317C26.1458 7.04636 24.4437 5.52002 22.4205 4.60043C20.2432 3.61075 17.8134 3.37834 15.4966 3.93903C13.18 4.49966 11.1045 5.82214 9.57946 7.70441C8.05463 9.58641 7.16155 11.9273 7.03123 14.3756C6.90091 16.824 7.54013 19.2516 8.8553 21.2947C10.1706 23.3381 12.0922 24.8882 14.3345 25.7089C16.577 26.5296 19.0168 26.5756 21.2869 25.8395C23.3953 25.1558 25.2493 23.8328 26.6134 22.0508L28.6658 23.5823C26.977 25.8396 24.6611 27.5085 22.0285 28.3621C19.246 29.2643 16.2565 29.2082 13.5071 28.2019C10.7575 27.1955 8.39342 25.2919 6.77184 22.7727C5.1501 20.2533 4.35941 17.2553 4.52053 14.2284C4.68164 11.2016 5.78565 8.31253 7.66415 5.99401C9.54245 3.67575 12.0932 2.05337 14.9321 1.36631C17.7709 0.679307 20.7484 0.963584 23.4191 2.17752C25.9461 3.32611 28.0718 5.24948 29.5114 7.68646L27.312 8.97317Z" stroke="" />
  </g>
  <defs>
  </defs>
</svg>
