<svg width="53" height="64" viewBox="0 0 53 64" fill="none" xmlns="http://www.w3.org/2000/svg">
<path fill-rule="evenodd" clip-rule="evenodd" d="M35.006 55.1935C32.3753 58.1545 29.9649 60.8677 28.2055 63.1921C27.3901 64.2693 25.6099 64.2693 24.7945 63.1921C23.0351 60.8677 20.6247 58.1545 17.994 55.1935C10.0109 46.2075 0 34.9391 0 25.327C0 11.3393 11.8645 0 26.5 0C41.1355 0 53 11.3393 53 25.327C53 34.9391 42.9891 46.2075 35.006 55.1935ZM10.7536 29.5228C11.8195 32.7836 13.9604 35.6256 16.8552 37.6228L19.2764 34.4042C17.1084 32.9083 15.505 30.7798 14.7067 28.3376C13.9083 25.8955 13.958 23.2713 14.8484 20.8585C15.7387 18.4457 17.4217 16.3742 19.645 14.9547C21.8683 13.5352 24.5122 12.844 27.1802 12.9849C29.8483 13.1258 32.3968 14.091 34.4437 15.736C36.4906 17.381 37.9256 19.617 38.5336 22.109C39.1416 24.6009 38.8898 27.2144 37.816 29.5577C36.7422 31.901 34.9042 33.8479 32.5776 35.1064L34.6148 38.5605C37.7213 36.8801 40.1753 34.2806 41.6091 31.1519C43.0428 28.0231 43.379 24.5335 42.5672 21.2063C41.7554 17.8792 39.8394 14.8936 37.1064 12.6972C34.3734 10.5009 30.9706 9.21204 27.4082 9.02397C23.8459 8.83589 20.3158 9.75869 17.3473 11.654C14.3787 13.5494 12.1316 16.3151 10.9428 19.5367C9.75408 22.7583 9.68768 26.2621 10.7536 29.5228ZM28.2069 31.5843V43.9896C28.2069 43.9896 28.2069 44 28.1963 44H26.7487C26.7487 44 24.3708 44 24.3708 43.9896V31.5843L26.7487 31.574H28.1963C28.1963 31.574 28.2069 31.574 28.2069 31.5843Z" fill="#DE3246"/>
</svg>
