<svg width="25" height="23" viewBox="0 0 25 23" fill="none" xmlns="http://www.w3.org/2000/svg">
<path fill-rule="evenodd" clip-rule="evenodd" d="M22.0554 15.1221C20.9902 14.5091 19.6117 13.8348 18.4212 14.3252C17.4813 14.693 16.8547 16.1642 16.2282 16.8999C15.9149 17.2677 15.5389 17.329 15.0377 17.1451C11.4661 15.7351 8.77184 13.4057 6.76677 10.218C6.45348 9.72756 6.51615 9.29844 6.8921 8.86933C7.45602 8.19501 8.20792 7.39809 8.39589 6.47857C8.58387 5.55904 8.14525 4.45561 7.70665 3.65869C7.20538 2.61656 6.64146 1.08403 5.57627 0.532317C4.57374 -0.0193979 3.25791 0.287103 2.3807 1.02272C0.876902 2.24876 0.125 4.14911 0.125 5.98816C0.125 6.53988 0.18767 7.0303 0.312986 7.58201C0.626277 8.80804 1.1902 9.97276 1.87944 11.0762C2.38071 11.9344 2.94463 12.7313 3.50856 13.467C5.3883 15.9803 7.7693 18.1872 10.5263 19.8423C11.9047 20.6393 13.3459 21.3749 14.9123 21.8653C16.6041 22.417 18.1706 22.9687 19.9877 22.6622C21.9301 22.2944 23.8098 21.1297 24.6244 19.2906C24.875 18.7389 24.9377 18.1259 24.8123 17.5742C24.687 16.4094 23.0579 15.6738 22.0554 15.1221Z" fill="#413B39"/>
</svg>
